# xmcd CD database file
#
# Track frame offsets:
#	150
#	23254
#	41766
#	66863
#	85122
#	103351
#	119562
#	138853
#	158628
#	176639
#	193016
#	213027
#	239284
#	255252
#	265034
#	283950
#	312925
#
# Disc length: 4559 seconds
#
# Revision: 0
# Processed by: cddbd v1.4PL0 Copyright (c) Steve Scherf et al.
# Submitted via: CDex 1.50beta10
#
DISCID=e811cd11
DTITLE=Abigoba - Astrophysical Emotions
DYEAR=2002
DGENRE=Jazz
TTITLE0=Astrophysical Emotions
TTITLE1=The Ultimate Gravity
TTITLE2=Under Zero G
TTITLE3=Imprevu(e)-"cool space blues"
TTITLE4=Theme from Jean-Pierre
TTITLE5=African Brothers
TTITLE6=Pensa Cola
TTITLE7=Soace Trip
TTITLE8=Black Monolithe
TTITLE9=New York Hall
TTITLE10=San Wah Hotel
TTITLE11=Rubans et Chaines
TTITLE12=La Petite Fille qui Ecoutait Satie
TTITLE13=Voortex Voyagers
TTITLE14=Surfing the Field of Waves
TTITLE15=Mister Mo'I
TTITLE16=The Sparkling Song
EXTD=YEAR: 2002
EXTT0=
EXTT1=
EXTT2=
EXTT3=
EXTT4=
EXTT5=
EXTT6=
EXTT7=
EXTT8=
EXTT9=
EXTT10=
EXTT11=
EXTT12=
EXTT13=
EXTT14=
EXTT15=
EXTT16=
PLAYORDER=
